<svg id="Layer_5" enable-background="new 0 0 64 64" height="512" viewBox="0 0 64 64" width="512" xmlns="http://www.w3.org/2000/svg" xmlns:xlink="http://www.w3.org/1999/xlink"><linearGradient id="SVGID_1_" gradientUnits="userSpaceOnUse" x1="32" x2="32" y1="63" y2=".999"><stop offset="0" stop-color="#9f2fff"/><stop offset="1" stop-color="#0bb1d3"/></linearGradient><path d="m56.328 6.088c-4.3-3.845-9.846-5.603-15.632-4.959-5.584.626-10.74 3.71-14.026 8.328l-2.735-2.735-2.489 1.479c-.317-.147-.638-.281-.956-.4l-.713-2.801h-7.555l-.712 2.802c-.318.119-.639.253-.956.4l-2.49-1.479-5.342 5.342 1.479 2.489c-.147.317-.281.638-.4.956l-2.801.713v7.555l2.836.721c.292.652.769 1.574 1.089 2.182-.845 1.219-1.495 2.592-1.89 4.086-.686 2.598-1.035 4.696-1.035 6.233v.414l2.066 2.066 1.087 6.52h3.847v2.382l-1.025.513c-3.069 1.534-4.975 4.618-4.975 8.049v6.056h14 5 7v-9c0-3.309-2.691-6-6-6v-1.586l2.131-2.131c2.426-2.426 3.781-5.63 3.855-9.048.339.333.674.671 1.035.979 1.507 1.285 2.48 2.958 2.822 4.786h-.843c-1.654 0-3 1.346-3 3 0 .771.301 1.468.78 2-.48.532-.78 1.229-.78 2 0 1.654 1.346 3 3 3h1.205c.934 4.618 4.996 8 9.795 8s8.861-3.382 9.795-8h1.205c1.654 0 3-1.346 3-3 0-.771-.301-1.468-.78-2 .48-.532.78-1.229.78-2 0-1.654-1.346-3-3-3h-.849c.332-1.819 1.278-3.485 2.695-4.675 4.547-3.813 7.154-9.399 7.154-15.325 0-5.685-2.432-11.12-6.672-14.912zm-53.328 16.135v-4.445l2.354-.598.168-.528c.179-.559.416-1.125.705-1.685l.255-.493-1.246-2.095 3.143-3.143 2.095 1.246.493-.255c.56-.289 1.126-.526 1.685-.705l.528-.168.597-2.354h4.445l.598 2.354.528.168c.559.179 1.125.416 1.685.705l.493.255 2.095-1.246 3.143 3.143-1.246 2.095.255.493c.289.56.526 1.126.705 1.685l.168.528 2.354.597v4.445l-2.354.598-.168.528c-.179.559-.416 1.125-.705 1.685l-.181.351c-.47-.522-.975-1.011-1.522-1.453.6-1.226.93-2.564.93-3.931 0-4.963-4.037-9-9-9s-9 4.037-9 9c0 1.268.285 2.52.806 3.677-.533.402-1.032.847-1.498 1.326-.372-.727-.71-1.419-.785-1.654l-.169-.529zm10.289-.977c-.186-.393-.289-.814-.289-1.246 0-1.654 1.346-3 3-3s3 1.346 3 3c0 .463-.117.911-.33 1.326-.929-.208-1.89-.326-2.88-.326-.853 0-1.687.09-2.501.246zm2.711-6.246c-2.757 0-5 2.243-5 5 0 .612.126 1.207.344 1.771-.635.226-1.251.495-1.839.812-.328-.822-.505-1.698-.505-2.583 0-3.859 3.141-7 7-7s7 3.141 7 7c0 .965-.204 1.915-.591 2.796-.58-.338-1.187-.632-1.818-.879.259-.607.409-1.25.409-1.917 0-2.757-2.243-5-5-5zm-11 46v-4.056c0-2.669 1.482-5.068 3.869-6.261l1.367-.683h8.304c-.954 1.063-1.54 2.462-1.54 4v7zm22-7v7h-5-3v-7c0-2.206 1.794-4 4-4s4 1.794 4 4zm0-19.058c0 2.994-1.166 5.81-3.283 7.927l-2.717 2.717v2.414h-10v-2c3.309 0 6-2.691 6-6h-2c0 2.206-1.794 4-4 4h-4.153l-.913-5.48-1.925-1.925c.057-1.331.378-3.117.96-5.319 1.287-4.873 5.736-8.276 10.821-8.276 6.182 0 11.21 5.028 11.21 11.21zm16 22.058c-3.699 0-6.843-2.513-7.736-6h15.473c-.894 3.487-4.038 6-7.737 6zm11-8h-22c-.552 0-1-.448-1-1s.448-1 1-1h22c.552 0 1 .448 1 1s-.448 1-1 1zm1-5c0 .552-.448 1-1 1h-22c-.552 0-1-.448-1-1s.448-1 1-1h22c.552 0 1 .448 1 1zm-.438-9.207c-1.87 1.568-3.09 3.792-3.441 6.207h-7.121v-1c0-.552.448-1 1-1h2c1.654 0 3-1.346 3-3s-1.346-3-3-3h-9c-.552 0-1-.448-1-1s.448-1 1-1h3c1.654 0 3-1.346 3-3v-2.013c.837.632 1.873 1.013 3 1.013 2.757 0 5-2.243 5-5 0-.32-.035-.636-.095-.947 1.263-.909 2.095-2.382 2.095-4.053 0-1.638-.785-3.128-2.096-4.057.064-.315.096-.63.096-.943 0-2.757-2.243-5-5-5-1.634 0-3.087.788-4 2.003-.913-1.215-2.366-2.003-4-2.003-2.757 0-5 2.243-5 5 0 .32.035.636.095.947-1.263.909-2.095 2.382-2.095 4.053 0 1.638.785 3.128 2.096 4.057-.064.315-.096.631-.096.943 0 2.757 2.243 5 5 5 1.127 0 2.163-.381 3-1.013v2.013c0 .552-.448 1-1 1h-3c-1.654 0-3 1.346-3 3s1.346 3 3 3h9c.552 0 1 .448 1 1s-.448 1-1 1h-2c-1.654 0-3 1.346-3 3v1h-7.126c-.364-2.402-1.625-4.662-3.554-6.308-.92-.785-1.763-1.668-2.509-2.621-.163-.996-.429-1.958-.802-2.867l1.269-1.269-1.479-2.489c.147-.317.281-.638.4-.956l2.801-.713v-7.555l-2.802-.713c-.119-.318-.253-.639-.4-.956l1.479-2.489-1.169-1.169c2.948-4.314 7.679-7.204 12.811-7.778 5.206-.584 10.207 1.001 14.076 4.461 3.817 3.414 6.005 8.306 6.005 13.422 0 5.333-2.347 10.36-6.438 13.793zm-18.858-15.103c-1.052-.507-1.704-1.539-1.704-2.69 0-1.654 1.346-3 3-3h1v-2h-1c-.339 0-.671.035-.991.1-.001-.033-.009-.066-.009-.1 0-1.654 1.346-3 3-3s3 1.346 3 3v10c0 1.654-1.346 3-3 3s-3-1.346-3-3c0-.342.068-.697.204-1.056l.323-.855zm14.592-5.38c1.052.507 1.704 1.539 1.704 2.69 0 1.654-1.346 3-3 3h-1v2h1c.339 0 .671-.035.991-.1.001.033.009.066.009.1 0 1.654-1.346 3-3 3s-3-1.346-3-3v-10c0-1.654 1.346-3 3-3s3 1.346 3 3c0 .342-.068.697-.204 1.056l-.323.855zm-14.296 2.69h2c0 .552.448 1 1 1v2c-1.654 0-3-1.346-3-3zm12-3v2c-.552 0-1 .448-1 1h-2c0-1.654 1.346-3 3-3z" fill="url(#SVGID_1_)"/></svg>