<svg id="_x33_0" enable-background="new 0 0 64 64" height="512" viewBox="0 0 64 64" width="512" xmlns="http://www.w3.org/2000/svg" xmlns:xlink="http://www.w3.org/1999/xlink"><linearGradient id="SVGID_1_" gradientUnits="userSpaceOnUse" x1="32" x2="32" y1="63" y2="1"><stop offset="0" stop-color="#9f2fff"/><stop offset="1" stop-color="#0bb1d3"/></linearGradient><path d="m55 44c0 .552-.448 1-1 1s-1-.448-1-1 .448-1 1-1 1 .448 1 1zm-3.77-3.638 1.54 1.275c.682-.822 1.778-.822 2.46 0l1.54-1.275c-.728-.879-1.711-1.362-2.77-1.362s-2.042.483-2.77 1.362zm-2.925-3.082 1.39 1.439c2.374-2.293 6.236-2.293 8.61 0l1.39-1.439c-3.141-3.031-8.249-3.031-11.39 0zm14.695 2.72c0 4.963-4.038 9-9 9-4.624 0-8.442-3.507-8.941-8h-5.648c-.638 1.571-1.763 2.891-3.185 3.78l.599 2.396 5.219 1.305c1.614.402 3.09 1.238 4.267 2.415 1.734 1.735 2.689 4.041 2.689 6.494v5.61h-34v-5.61c0-2.453.955-4.759 2.69-6.494 1.177-1.177 2.652-2.013 4.267-2.415l5.218-1.305.599-2.396c-1.422-.89-2.547-2.209-3.185-3.78h-7.658c-.495 3.94-3.859 7-7.931 7-4.411 0-8-3.589-8-8s3.589-8 8-8c4.072 0 7.436 3.06 7.931 7h6.432l-.802-.579c-1.609-1.207-2.561-3.111-2.561-5.105 0-2.408 1.194-4.643 3.195-5.981.073-.166.17-.315.252-.474l-5.575-5.575c-1.702 1.079-3.712 1.714-5.872 1.714-6.065 0-11-4.935-11-11s4.935-11 11-11 11 4.935 11 11c0 3.182-1.366 6.043-3.532 8.054l5.095 5.095c1.667-1.969 4.132-3.149 6.822-3.149h1.229c2.195 0 4.237.791 5.822 2.15l2.116-2.116c-1.591-1.909-2.552-4.361-2.552-7.034 0-6.065 4.935-11 11-11s11 4.935 11 11-4.935 11-11 11c-2.673 0-5.125-.961-7.034-2.552l-2.178 2.178c.39.528.744 1.089 1.017 1.709 2.001 1.338 3.195 3.574 3.195 5.981 0 1.993-.952 3.897-2.546 5.094l-.817.59h4.422c.5-4.493 4.317-8 8.941-8 4.962 0 9 4.037 9 9zm-57.983-22.333c.126-2.658 1.736-4.928 4.023-6.001-.639-.709-1.04-1.638-1.04-2.666 0-2.206 1.794-4 4-4s4 1.794 4 4c0 1.028-.401 1.957-1.04 2.666 2.287 1.073 3.897 3.343 4.023 6.001 1.259-1.549 2.017-3.52 2.017-5.667 0-4.962-4.038-9-9-9s-9 4.038-9 9c0 2.147.758 4.118 2.017 5.667zm6.983-6.667c1.103 0 2-.897 2-2s-.897-2-2-2-2 .897-2 2 .897 2 2 2zm0 10c1.849 0 3.569-.562 5-1.522v-1.478c0-2.757-2.243-5-5-5s-5 2.243-5 5v1.478c1.431.96 3.151 1.522 5 1.522zm28-6c0 4.962 4.038 9 9 9s9-4.038 9-9-4.038-9-9-9-9 4.038-9 9zm-16.253 21.811.253.183v-3.994h1c3.009 0 5.992-.995 8.4-2.8l.694-.521.613.613c1.2 1.2 2.684 2.117 4.292 2.653l1.001.334v3.714l.268-.194c1.079-.809 1.732-2.115 1.732-3.483 0-1.742-.865-3.358-2.314-4.324l-.499-.333-.116-.288c-1.062-2.655-3.596-4.371-6.456-4.371h-1.229c-2.86 0-5.395 1.716-6.457 4.372l-.116.288-.499.333c-1.449.965-2.314 2.582-2.314 4.323 0 1.368.653 2.674 1.747 3.495zm-12.391-2.328c.269.448.535.958.775 1.517h1.328c-.58-.646-1.293-1.17-2.103-1.517zm3.294 3.517h-1.875c.137.633.225 1.299.225 2s-.088 1.367-.225 2h1.875c.223-.627.35-1.298.35-2s-.128-1.373-.35-2zm-3.931 4c.171-.626.281-1.297.281-2 0-.705-.109-1.375-.279-2h-3.44c-.171.626-.281 1.297-.281 2 0 .705.109 1.375.279 2zm-2.638 2c.309.579.636 1.065.917 1.441.28-.377.607-.862.916-1.441zm-4.731-2h1.875c-.137-.633-.225-1.299-.225-2s.088-1.367.225-2h-1.875c-.222.627-.35 1.298-.35 2s.128 1.373.35 2zm6.569-6c-.309-.579-.636-1.065-.917-1.441-.28.377-.607.862-.916 1.441zm-5.379 0h1.328c.24-.558.506-1.068.775-1.517-.809.347-1.522.871-2.103 1.517zm2.104 9.517c-.27-.449-.536-.959-.776-1.517h-1.328c.581.646 1.294 1.17 2.104 1.517zm6.816-1.517h-1.328c-.24.558-.506 1.068-.776 1.517.81-.347 1.523-.871 2.104-1.517zm12.795 5.467 1.518 3.904 2.615-1.569-2.694-2.694zm5.77 3.684-1.23.738.74 1.111h.929l.751-1.126zm7.676-3.195-2.803 7.208 2.183-.873.787-6.294zm-15.569.041.787 6.294 2.183.873-2.803-7.208zm4.376 5.264.843 2.168.525-1.312-.798-1.198zm-.634 4.366-.343 1.373h1.063l-.5-1.285zm2.866 1.373h2.52l.327-.84-1.264-3.16h-.646l-1.264 3.16zm4.666 0h1.063l-.343-1.373-.22.088zm.087-5.743-.567-.344-.802 1.204.525 1.312zm-18.493 5.743h4v-2h2v2h2.469l.531-2.123-2.919-1.168-.901-7.205c-1.159.337-2.221.949-3.076 1.805-1.357 1.358-2.104 3.162-2.104 5.081zm24.82-10.496-.901 7.205-2.919 1.168.531 2.123h2.469v-2h2v2h4v-3.61c0-1.919-.747-3.723-2.104-5.08-.856-.856-1.918-1.469-3.076-1.806zm-5.516-1.398-2.711 2.683 2.634 1.581 1.518-3.904zm-1.925-3.467c-.752.234-1.551.361-2.379.361s-1.627-.127-2.379-.361l-.514 2.055 2.893 2.892 2.893-2.893zm3.621-10.924c-1.495-.549-2.889-1.378-4.087-2.428-2.345 1.569-5.098 2.501-7.913 2.681v3.032c0 3.309 2.691 6 6 6s6-2.691 6-6zm23 5.285c0-3.859-3.14-7-7-7s-7 3.141-7 7 3.14 7 7 7 7-3.141 7-7zm-19-25c0-2.183 1.311-3.733 2.296-4.71l.708-.701 4.01 4.01-.726.707c-.186.181-.288.427-.288.694 0 .551.449 1 1 1 .267 0 .513-.102.694-.288l.707-.725 4.01 4.01-.701.708c-.977.984-2.527 2.295-4.71 2.295-3.86 0-7-3.14-7-7zm2 0c0 2.757 2.243 5 5 5 .882 0 1.679-.315 2.555-1.031l-1.261-1.261c-.397.191-.837.292-1.294.292-1.654 0-3-1.346-3-3 0-.458.101-.897.292-1.294l-1.261-1.261c-.716.876-1.031 1.673-1.031 2.555z" fill="url(#SVGID_1_)"/></svg>