<svg width="1440" height="4616" viewBox="0 0 1440 4616" fill="none" xmlns="http://www.w3.org/2000/svg">
<g filter="url(#filter0_d)">
<path fill-rule="evenodd" clip-rule="evenodd" d="M1417.78 -2339.49C1450.96 -2389.99 1521.01 -2399.75 1566.73 -2360.24L2633.62 -1438.38C2678.27 -1399.79 2679.98 -1331.13 2637.29 -1290.38L696.112 562.639C678.267 579.674 654.754 589.51 630.095 590.259L-338.342 619.634C-419.251 622.088 -469.398 532.412 -424.946 464.764L1417.78 -2339.49Z" fill="#1F2B44"/>
<path d="M1607.19 1225.54C1646.24 1186.49 1709.56 1186.49 1748.61 1225.54L2575.22 2052.15C2614.27 2091.2 2614.27 2154.52 2575.22 2193.57L1748.61 3020.18C1709.56 3059.23 1646.24 3059.23 1607.19 3020.18L780.582 2193.57C741.529 2154.52 741.529 2091.2 780.582 2052.15L1607.19 1225.54Z" fill="#1F2B44"/>
<path fill-rule="evenodd" clip-rule="evenodd" d="M568.732 3105.82C603.14 3096.75 639.777 3106.64 664.939 3131.8L2294.18 4761.04C2333.23 4800.09 2333.23 4863.41 2294.18 4902.46L714.501 6482.14C668.714 6527.93 592.149 6518.79 558.424 6463.51L-1134.96 3688.03C-1169.82 3630.9 -1139.81 3556.32 -1075.09 3539.26L568.732 3105.82Z" fill="#1F2B44"/>
<path d="M68.2708 1370.07C107.323 1331.02 170.64 1331.02 209.692 1370.07L573.852 1734.23C612.905 1773.29 612.905 1836.6 573.852 1875.65L209.692 2239.81C170.64 2278.87 107.323 2278.87 68.2709 2239.81L-295.889 1875.65C-334.942 1836.6 -334.942 1773.29 -295.889 1734.23L68.2708 1370.07Z" fill="#1F2B44"/>
<path fill-rule="evenodd" clip-rule="evenodd" d="M358.802 -1168.58C397.03 -1211.57 463.562 -1213.52 504.243 -1172.84L1326.61 -350.478C1365.66 -311.426 1365.66 -248.109 1326.61 -209.057L467.655 649.894C443.803 673.746 409.533 683.966 376.512 677.074L-853.569 420.331C-928.813 404.625 -958.944 313.435 -907.868 255.992L358.802 -1168.58Z" fill="#1F2B44"/>
</g>
<defs>
<filter id="filter0_d" x="-1198.66" y="-2431.58" width="3915.89" height="8994.02" filterUnits="userSpaceOnUse" color-interpolation-filters="sRGB">
<feFlood flood-opacity="0" result="BackgroundImageFix"/>
<feColorMatrix in="SourceAlpha" type="matrix" values="0 0 0 0 0 0 0 0 0 0 0 0 0 0 0 0 0 0 127 0"/>
<feOffset dy="2"/>
<feGaussianBlur stdDeviation="24.5"/>
<feColorMatrix type="matrix" values="0 0 0 0 0.0627451 0 0 0 0 0.129412 0 0 0 0 0.192157 0 0 0 1 0"/>
<feBlend mode="normal" in2="BackgroundImageFix" result="effect1_dropShadow"/>
<feBlend mode="normal" in="SourceGraphic" in2="effect1_dropShadow" result="shape"/>
</filter>
</defs>
</svg>
