<?xml version="1.0" encoding="iso-8859-1"?>
<!-- Generator: Adobe Illustrator 19.0.0, SVG Export Plug-In . SVG Version: 6.00 Build 0)  -->
<svg version="1.1" id="Capa_1" xmlns="http://www.w3.org/2000/svg" xmlns:xlink="http://www.w3.org/1999/xlink" x="0px" y="0px"
	 viewBox="0 0 512 512" style="enable-background:new 0 0 512 512;" xml:space="preserve">
<g>
	
		<linearGradient id="SVGID_1_" gradientUnits="userSpaceOnUse" x1="-38.094" y1="606.711" x2="21.332" y2="606.711" gradientTransform="matrix(8.5333 0 0 -8.5333 369.1346 5433.2671)">
		<stop  offset="0" style="stop-color:#00A2CC"/>
		<stop  offset="1" style="stop-color:#2B32B2"/>
	</linearGradient>
	<path style="fill:url(#SVGID_1_);" d="M298.641,0c-84.796-0.051-153.566,68.651-153.617,153.446
		c-0.043,71.706,49.562,133.888,119.484,149.794V512h68.267V303.241c82.679-18.807,134.468-101.077,115.661-183.757
		C432.529,49.562,370.347-0.043,298.641,0z M315.708,494.933h-34.133V358.4h34.133V494.933z M315.708,341.333h-34.133V307.2h34.133
		V341.333z M298.641,290.133c-75.409,0-136.533-61.124-136.533-136.533S223.232,17.067,298.641,17.067S435.174,78.191,435.174,153.6
		C435.089,228.966,374.007,290.048,298.641,290.133z"/>
	
		<linearGradient id="SVGID_2_" gradientUnits="userSpaceOnUse" x1="-38.094" y1="618.7109" x2="21.332" y2="618.7109" gradientTransform="matrix(8.5333 0 0 -8.5333 369.1346 5433.2671)">
		<stop  offset="0" style="stop-color:#00A2CC"/>
		<stop  offset="1" style="stop-color:#2B32B2"/>
	</linearGradient>
	<path style="fill:url(#SVGID_2_);" d="M298.641,42.667c-61.269,0-110.933,49.664-110.933,110.933s49.664,110.933,110.933,110.933
		S409.574,214.869,409.574,153.6C409.506,92.365,359.876,42.735,298.641,42.667z M321.741,193.766l66.85-66.85
		c14.797,49.741-13.542,102.067-63.283,116.855c-49.741,14.797-102.067-13.542-116.855-63.283
		c-14.797-49.741,13.542-102.067,63.283-116.855c42.94-12.766,88.917,6.545,109.858,46.148L309.674,181.7L321.741,193.766z"/>
	
		<linearGradient id="SVGID_3_" gradientUnits="userSpaceOnUse" x1="-38.094" y1="617.2109" x2="21.332" y2="617.2109" gradientTransform="matrix(8.5333 0 0 -8.5333 369.1346 5433.2671)">
		<stop  offset="0" style="stop-color:#00A2CC"/>
		<stop  offset="1" style="stop-color:#2B32B2"/>
	</linearGradient>
	<polygon style="fill:url(#SVGID_3_);" points="241.399,198.767 318.208,121.967 330.274,134.033 253.474,210.833 	"/>
</g>
<linearGradient id="SVGID_4_" gradientUnits="userSpaceOnUse" x1="-38.094" y1="623.7109" x2="21.332" y2="623.7109" gradientTransform="matrix(8.5333 0 0 -8.5333 369.1346 5433.2671)">
	<stop  offset="0" style="stop-color:#00A2CC"/>
	<stop  offset="1" style="stop-color:#2B32B2"/>
</linearGradient>
<polygon style="fill:url(#SVGID_4_);" points="326.741,113.425 343.799,96.367 355.874,108.433 338.807,125.5 "/>
<linearGradient id="SVGID_5_" gradientUnits="userSpaceOnUse" x1="-38.094" y1="629.7109" x2="21.332" y2="629.7109" gradientTransform="matrix(8.5333 0 0 -8.5333 369.1346 5433.2671)">
	<stop  offset="0" style="stop-color:#00A2CC"/>
	<stop  offset="1" style="stop-color:#2B32B2"/>
</linearGradient>
<path style="fill:url(#SVGID_5_);" d="M136.508,51.2c-14.14,0-25.6-11.46-25.6-25.6c0-4.71-3.823-8.533-8.533-8.533
	c-4.71,0-8.533,3.823-8.533,8.533c0,14.14-11.46,25.6-25.6,25.6c-4.71,0-8.533,3.823-8.533,8.533s3.823,8.533,8.533,8.533
	c14.14,0,25.6,11.46,25.6,25.6c0,4.71,3.823,8.533,8.533,8.533c4.71,0,8.533-3.823,8.533-8.533c0-14.14,11.46-25.6,25.6-25.6
	c4.71,0,8.533-3.823,8.533-8.533S141.218,51.2,136.508,51.2z M102.374,68.531c-2.483-3.345-5.453-6.315-8.798-8.798
	c3.345-2.483,6.315-5.453,8.798-8.798c2.483,3.345,5.453,6.315,8.798,8.798C107.827,62.217,104.857,65.186,102.374,68.531z"/>
<g>
</g>
<g>
</g>
<g>
</g>
<g>
</g>
<g>
</g>
<g>
</g>
<g>
</g>
<g>
</g>
<g>
</g>
<g>
</g>
<g>
</g>
<g>
</g>
<g>
</g>
<g>
</g>
<g>
</g>
</svg>
