<svg id="Layer_5" enable-background="new 0 0 64 64" height="512" viewBox="0 0 64 64" width="512" xmlns="http://www.w3.org/2000/svg" xmlns:xlink="http://www.w3.org/1999/xlink"><linearGradient id="SVGID_1_" gradientUnits="userSpaceOnUse" x1="32" x2="32" y1="63" y2="1"><stop offset="0" stop-color="#9f2fff"/><stop offset="1" stop-color="#0bb1d3"/></linearGradient><path d="m37 49h2v2h-2zm4 2h2v-2h-2zm4 0h2v-2h-2zm14-2h-2v2h2zm-26 2h2v-2h-2zm-8 0h2v-2h-2zm4 0h2v-2h-2zm20 0h2v-2h-2zm4 0h2v-2h-2zm-8 4h2v-2h-2zm-12 0h2v-2h-2zm8 0h2v-2h-2zm18-2h-2v2h2zm-6 2h2v-2h-2zm-16 0h2v-2h-2zm12 0h2v-2h-2zm-24 0h2v-2h-2zm4 0h2v-2h-2zm-2-38h30c1.103 0 2 .897 2 2v18c0 1.103-.897 2-2 2h-30c-1.103 0-2-.897-2-2v-18c0-1.103.897-2 2-2zm0 20h30.001l-.001-18h-30zm2-16h6v6h-6zm2 4h2v-2h-2zm-2 4h6v6h-6zm2 4h2v-2h-2zm6-12h6v6h-6zm2 4h2v-2h-2zm-2 4h6v6h-6zm2 4h2v-2h-2zm6-12h10v14h-10zm2 12h6v-10h-6zm-46 13v-40c0-2.757 2.243-5 5-5h18c2.757 0 5 2.243 5 5v7h29c2.757 0 5 2.243 5 5v20c0 2.757-2.243 5-5 5h-1.184c.112.314.184.648.184 1s-.072.686-.184 1h1.184c2.757 0 5 2.243 5 5v8c0 2.757-2.243 5-5 5h-32c-2.757 0-5-2.243-5-5v-7h-15c-2.757 0-5-2.243-5-5zm59.816 13h-37.632c.414 1.161 1.514 2 2.816 2h32c1.302 0 2.402-.839 2.816-2zm-2.816-12h-4-24-4c-1.654 0-3 1.346-3 3v7h38v-7c0-1.654-1.346-3-3-3zm-50-8c-.551 0-1 .449-1 1v4c0 .551.449 1 1 1h14c.551 0 1-.449 1-1v-2.026c-.953-.721-1.652-1.762-1.899-2.974zm13-16h-14v2h14zm0 8h-14v2h14zm4 13c0 .417-.086.814-.24 1.175.399-.103.809-.175 1.24-.175h1.184c-.112-.314-.184-.648-.184-1s.072-.686.184-1h-1.184c-.342 0-.677-.035-1-.101zm29-1h-24c-.551 0-1 .449-1 1s.449 1 1 1h24c.551 0 1-.449 1-1s-.449-1-1-1zm4-28h-32c-1.654 0-3 1.346-3 3v20c0 1.654 1.346 3 3 3h4 24 4c1.654 0 3-1.346 3-3v-20c0-1.654-1.346-3-3-3zm-31-2v-4h-24v37c0 1.654 1.346 3 3 3h15.101c.152-.745.483-1.418.927-2.003-.01 0-.018.003-.028.003h-14c-1.654 0-3-1.346-3-3v-4c0-1.654 1.346-3 3-3h13v-2h-14c-1.103 0-2-.897-2-2v-2c0-1.103.897-2 2-2h14v-2h-14c-1.103 0-2-.897-2-2v-2c0-1.103.897-2 2-2h14v-3c0-2.757 2.243-5 5-5zm-24-7v1h24v-1c0-1.654-1.346-3-3-3h-18c-1.654 0-3 1.346-3 3zm15 9c0 2.206-1.794 4-4 4s-4-1.794-4-4 1.794-4 4-4 4 1.794 4 4zm-2 0c0-1.103-.897-2-2-2s-2 .897-2 2 .897 2 2 2 2-.897 2-2z" fill="url(#SVGID_1_)"/></svg>