<svg id="Layer_5" enable-background="new 0 0 64 64" height="512" viewBox="0 0 64 64" width="512" xmlns="http://www.w3.org/2000/svg" xmlns:xlink="http://www.w3.org/1999/xlink"><linearGradient id="SVGID_1_" gradientUnits="userSpaceOnUse" x1="32" x2="32" y1="62.803" y2=".861"><stop offset="0" stop-color="#9f2fff"/><stop offset="1" stop-color="#0bb1d3"/></linearGradient><path d="m2.071 45.629-.548 1.371h4.476c-.619.827-.999 1.841-.999 2.951 0 .859.226 1.709.652 2.456l4.348 7.609 4.348-7.608c.426-.748.652-1.597.652-2.457 0-1.11-.38-2.125-1.006-2.951h2.388l.618 1.236c.854 1.705 2.566 2.764 4.472 2.764h6.467c-.584.799-.939 1.775-.939 2.838 0 .957.281 1.885.812 2.684l4.188 6.281 4.187-6.282c.532-.798.813-1.726.813-2.683 0-1.063-.355-2.039-.938-2.838h6.467c1.905 0 3.618-1.059 4.472-2.764l.617-1.236h2.381c-.619.827-.999 1.841-.999 2.951 0 .859.226 1.709.652 2.456l4.348 7.609 4.348-7.608c.426-.748.652-1.597.652-2.457 0-1.11-.38-2.125-1.006-2.951h4.483l-.548-1.371c-1.374-3.436-3.907-6.326-7.132-8.14l-6.797-3.823v-7.194c0-1.905-1.059-3.618-2.764-4.472l-1.236-.618v-.852c0-8.096-4.415-15.532-11.521-19.408l-.479-.261-.479.261c-7.106 3.876-11.521 11.313-11.521 19.408v.852l-1.236.618c-1.705.854-2.764 2.566-2.764 4.472v7.194l-6.797 3.823c-3.224 1.814-5.758 4.704-7.132 8.14zm10.929 4.322c0 .513-.135 1.019-.389 1.464l-2.611 4.569-2.611-4.569c-.254-.445-.389-.951-.389-1.464 0-1.627 1.324-2.951 3.049-2.951 1.627 0 2.951 1.324 2.951 2.951zm12.387-.951 1.105-3.316c.137-.41.519-.684.949-.684h9.117c.431 0 .812.274.949.684l1.106 3.316h-6.451-.324zm9.613 4.838c0 .562-.165 1.106-.477 1.574l-2.523 3.785-2.523-3.784c-.312-.469-.477-1.014-.477-1.575 0-1.565 1.273-2.838 2.838-2.838h.324c1.565 0 2.838 1.273 2.838 2.838zm22-3.887c0 .513-.135 1.019-.389 1.464l-2.611 4.569-2.611-4.569c-.254-.445-.389-.951-.389-1.464 0-1.627 1.324-2.951 3.049-2.951 1.627 0 2.951 1.324 2.951 2.951zm2.436-4.951h-11.436v-2h-2v2.764l-.789 1.578c-.275.549-.701.981-1.211 1.268v-14.9l9.816 5.523c2.388 1.342 4.344 3.359 5.62 5.767zm-15.094-21.211c1.022.512 1.658 1.54 1.658 2.683v6.069l-2-1.125v-7.797zm-12.342-20.642c3.024 1.757 5.476 4.239 7.199 7.153-2.001 1.74-4.526 2.7-7.199 2.7s-5.198-.96-7.199-2.7c1.723-2.914 4.175-5.396 7.199-7.153zm-8.149 8.977c2.304 1.861 5.15 2.876 8.149 2.876s5.845-1.015 8.149-2.876c1.194 2.593 1.851 5.449 1.851 8.406v28.47h-1.28l-1.316-3.949c-.409-1.227-1.552-2.051-2.845-2.051h-9.117c-1.293 0-2.437.824-2.846 2.051l-1.316 3.949h-1.28v-28.47c0-2.957.657-5.813 1.851-8.406zm-5.851 14.348c0-1.143.636-2.171 1.658-2.683l.342-.171v7.797l-2 1.125zm2 7.237v14.901c-.51-.287-.936-.72-1.211-1.268l-.789-1.578v-2.764h-2v2h-11.436c1.275-2.408 3.231-4.425 5.619-5.769zm12 1.291c4.411 0 8-3.589 8-8s-3.589-8-8-8-8 3.589-8 8 3.589 8 8 8zm0-14c3.309 0 6 2.691 6 6s-2.691 6-6 6-6-2.691-6-6 2.691-6 6-6zm16 20h-2v-2h2zm-30 0h-2v-2h2zm8 0h-2v-2h2zm12-2h2v2h-2zm0-4h2v2h-2zm-12 2h-2v-2h2zm32-27v-2h-2v2c0 1.654-1.346 3-3 3h-2v2h2c1.654 0 3 1.346 3 3v2h2v-2c0-1.654 1.346-3 3-3h2v-2h-2c-1.654 0-3-1.346-3-3zm-1 5.031c-.292-.393-.638-.739-1.031-1.031.393-.292.739-.638 1.031-1.031.292.393.638.739 1.031 1.031-.393.292-.739.638-1.031 1.031zm-56 9.969h2c1.654 0 3 1.346 3 3v2h2v-2c0-1.654 1.346-3 3-3h2v-2h-2c-1.654 0-3-1.346-3-3v-2h-2v2c0 1.654-1.346 3-3 3h-2zm6-2.031c.292.393.638.739 1.031 1.031-.393.292-.739.638-1.031 1.031-.292-.393-.638-.739-1.031-1.031.393-.292.739-.638 1.031-1.031zm12-21.969v2h-2v-2zm-2 4h2v2h-2zm2 0v-2h2v2zm-2-2v2h-2v-2zm-11 4v2h-2v-2zm-2 4h2v2h-2zm2 0v-2h2v2zm-2-2v2h-2v-2zm50 15v2h-2v-2zm-2 4h2v2h-2zm2 0v-2h2v2zm-2-2v2h-2v-2zm-5-22v2h-2v-2zm-2 4h2v2h-2zm2 0v-2h2v2zm-2-2v2h-2v-2z" fill="url(#SVGID_1_)"/></svg>